<svg xmlns="http://www.w3.org/2000/svg" version="1.1" xmlns:xlink="http://www.w3.org/1999/xlink" width="1000" height="1000"><metadata><rdf:RDF xmlns:rdf="http://www.w3.org/1999/02/22-rdf-syntax-ns#" xmlns:dc="http://purl.org/dc/elements/1.1/"><rdf:Description><dc:creator>RealFaviconGenerator</dc:creator><dc:source>https://realfavicongenerator.net</dc:source></rdf:Description></rdf:RDF></metadata><style>
    #light-icon {
      display: inline;
    }
    #dark-icon {
      display: none;
    }

    @media (prefers-color-scheme: dark) {
      #light-icon {
        display: none;
      }
      #dark-icon {
        display: inline;
      }
    }
  </style><g id="light-icon"><svg xmlns="http://www.w3.org/2000/svg" version="1.1" xmlns:xlink="http://www.w3.org/1999/xlink" width="1000" height="1000"><g><g transform="matrix(3.125,0,0,3.125,0,0)"><svg xmlns="http://www.w3.org/2000/svg" id="Calque_2" data-name="Calque 2" viewBox="0 0 320 320" width="320" height="320"><defs>
    <style>
      .cls-1 {
        fill: #f9f7f2;
      }

      .cls-2 {
        fill: #1a1a1a;
      }
    </style>
  </defs><g id="Calque_1-2" data-name="Calque 1">
    <g>
      <rect class="cls-2" y="0" width="320" height="320" rx="40" ry="40"></rect>
      <path class="cls-2" d="M280,0H40C17.91,0,0,17.91,0,40v240C0,302.09,17.91,320,40,320h240c22.09,0,40-17.91,40-40V40c0-22.09-17.91-40-40-40h0Z"></path>
    </g>
    <g>
      <g>
        <path class="cls-1" d="M178.56,58.04c-48.38,0-87.75,39.36-87.75,87.75s39.36,87.75,87.75,87.75,87.75-39.36,87.75-87.75-39.36-87.75-87.75-87.75ZM178.56,215.9c-38.66,0-70.12-31.46-70.12-70.12s31.46-70.12,70.12-70.12,70.12,31.46,70.12,70.12-31.46,70.12-70.12,70.12Z"></path>
        <path class="cls-1" d="M178.56,77.66c-37.56,0-68.12,30.56-68.12,68.12s30.56,68.12,68.12,68.12,68.12-30.56,68.12-68.12-30.56-68.12-68.12-68.12Z"></path>
        <path class="cls-1" d="M178.56,39.85c-58.41,0-105.93,47.52-105.93,105.93s47.52,105.93,105.93,105.93,105.93-47.52,105.93-105.93-47.52-105.93-105.93-105.93ZM178.56,235.03c-49.21,0-89.25-40.04-89.25-89.25s40.04-89.25,89.25-89.25,89.25,40.04,89.25,89.25-40.04,89.25-89.25,89.25Z"></path>
        <path class="cls-1" d="M267.06,57.75c-49.26-49.26-129.12-49.26-178.38,0-43.93,43.93-48.65,112.19-14.22,161.38l-44.51,44.51c-7.94,7.94-7.94,20.81,0,28.75l2.46,2.46c7.94,7.94,20.81,7.94,28.75,0l44.51-44.51c49.2,34.43,117.45,29.72,161.38-14.22,49.26-49.26,49.26-129.12,0-178.38ZM178.56,252.72c-58.96,0-106.93-47.97-106.93-106.93s47.97-106.93,106.93-106.93,106.93,47.97,106.93,106.93-47.97,106.93-106.93,106.93Z"></path>
      </g>
      <g>
        <path class="cls-2" d="M180.3,131.97l-1-.47c-.31-.15-.53-.07-.68.24l-13.32,28.01c-.15.31-.07.53.24.68l1.11.43c.84.34,1.71.28,2.61-.17.9-.45,1.64-1.22,2.23-2.32l10.01-21.05c.56-1.17.73-2.25.5-3.23-.22-.98-.79-1.69-1.71-2.13Z"></path>
        <path class="cls-2" d="M178.56,98.82c-25.93,0-46.96,21.02-46.96,46.96s21.02,46.96,46.96,46.96,46.96-21.02,46.96-46.96-21.02-46.96-46.96-46.96ZM210.26,153.03l-.14.3c-.13.28-.33.48-.57.58-.25.1-.51.09-.8-.04l-9.72-4.25c-.61-.29-.78-.71-.51-1.28l.72-1.52c.33-.69.41-1.31.26-1.88-.15-.57-.51-.99-1.08-1.25-.57-.27-1.12-.28-1.65-.04-.52.23-.94.69-1.26,1.34l-9.29,19.55c-.3.66-.39,1.27-.23,1.8.16.55.52.95,1.09,1.22.57.27,1.11.29,1.64.07.53-.22.95-.67,1.28-1.36l.78-1.64c.27-.57.71-.7,1.31-.42l9.43,4.85c.28.13.46.33.54.59.07.26.05.53-.09.81l-.12.24c-1.23,2.59-2.87,4.59-4.91,6.02-2.04,1.43-4.31,2.2-6.81,2.3-2.5.1-5.06-.47-7.69-1.72-1.86-.88-3.41-1.94-4.69-3.17-2.09,1.01-4.37,1.55-6.85,1.59-3.18.05-6.46-.72-9.83-2.33l-15.08-7.17c-.36-.17-.59-.41-.7-.71-.11-.3-.08-.63.09-.99l24.38-51.28c.17-.36.4-.59.71-.7.3-.11.63-.08.99.09l15.08,7.17c3.37,1.6,6.04,3.65,8.01,6.15,1.53,1.94,2.55,4.04,3.09,6.29,1.75.23,3.56.77,5.42,1.66,4,1.9,6.66,4.58,7.99,8.03,1.33,3.45,1.06,7.14-.8,11.06Z"></path>
      </g>
    </g>
  </g></svg></g></g></svg></g><g id="dark-icon"><svg xmlns="http://www.w3.org/2000/svg" version="1.1" xmlns:xlink="http://www.w3.org/1999/xlink" width="1000" height="1000"><g><g transform="matrix(3.125,0,0,3.125,0,0)"><svg xmlns="http://www.w3.org/2000/svg" id="Calque_2" data-name="Calque 2" viewBox="0 0 320 320" width="320" height="320"><defs>
    <style>
      .cls-1 {
        fill: #f9f7f2;
      }

      .cls-2 {
        fill: #1a1a1a;
      }
    </style>
  </defs><g id="Calque_1-2" data-name="Calque 1">
    <g>
      <rect class="cls-2" y="0" width="320" height="320" rx="40" ry="40"></rect>
      <path class="cls-1" d="M280,0H40C17.91,0,0,17.91,0,40v240C0,302.09,17.91,320,40,320h240c22.09,0,40-17.91,40-40V40c0-22.09-17.91-40-40-40h0Z"></path>
    </g>
    <g>
      <g>
        <path class="cls-2" d="M178.56,58.04c-48.38,0-87.75,39.36-87.75,87.75s39.36,87.75,87.75,87.75,87.75-39.36,87.75-87.75-39.36-87.75-87.75-87.75ZM178.56,215.9c-38.66,0-70.12-31.46-70.12-70.12s31.46-70.12,70.12-70.12,70.12,31.46,70.12,70.12-31.46,70.12-70.12,70.12Z"></path>
        <path class="cls-2" d="M178.56,77.66c-37.56,0-68.12,30.56-68.12,68.12s30.56,68.12,68.12,68.12,68.12-30.56,68.12-68.12-30.56-68.12-68.12-68.12Z"></path>
        <path class="cls-2" d="M178.56,39.85c-58.41,0-105.93,47.52-105.93,105.93s47.52,105.93,105.93,105.93,105.93-47.52,105.93-105.93-47.52-105.93-105.93-105.93ZM178.56,235.03c-49.21,0-89.25-40.04-89.25-89.25s40.04-89.25,89.25-89.25,89.25,40.04,89.25,89.25-40.04,89.25-89.25,89.25Z"></path>
        <path class="cls-2" d="M267.06,57.75c-49.26-49.26-129.12-49.26-178.38,0-43.93,43.93-48.65,112.19-14.22,161.38l-44.51,44.51c-7.94,7.94-7.94,20.81,0,28.75l2.46,2.46c7.94,7.94,20.81,7.94,28.75,0l44.51-44.51c49.2,34.43,117.45,29.72,161.38-14.22,49.26-49.26,49.26-129.12,0-178.38ZM178.56,252.72c-58.96,0-106.93-47.97-106.93-106.93s47.97-106.93,106.93-106.93,106.93,47.97,106.93,106.93-47.97,106.93-106.93,106.93Z"></path>
      </g>
      <g>
        <path class="cls-1" d="M180.3,131.97l-1-.47c-.31-.15-.53-.07-.68.24l-13.32,28.01c-.15.31-.07.53.24.68l1.11.43c.84.34,1.71.28,2.61-.17.9-.45,1.64-1.22,2.23-2.32l10.01-21.05c.56-1.17.73-2.25.5-3.23-.22-.98-.79-1.69-1.71-2.13Z"></path>
        <path class="cls-1" d="M178.56,98.82c-25.93,0-46.96,21.02-46.96,46.96s21.02,46.96,46.96,46.96,46.96-21.02,46.96-46.96-21.02-46.96-46.96-46.96ZM210.26,153.03l-.14.3c-.13.28-.33.48-.57.58-.25.1-.51.09-.8-.04l-9.72-4.25c-.61-.29-.78-.71-.51-1.28l.72-1.52c.33-.69.41-1.31.26-1.88-.15-.57-.51-.99-1.08-1.25-.57-.27-1.12-.28-1.65-.04-.52.23-.94.69-1.26,1.34l-9.29,19.55c-.3.66-.39,1.27-.23,1.8.16.55.52.95,1.09,1.22.57.27,1.11.29,1.64.07.53-.22.95-.67,1.28-1.36l.78-1.64c.27-.57.71-.7,1.31-.42l9.43,4.85c.28.13.46.33.54.59.07.26.05.53-.09.81l-.12.24c-1.23,2.59-2.87,4.59-4.91,6.02-2.04,1.43-4.31,2.2-6.81,2.3-2.5.1-5.06-.47-7.69-1.72-1.86-.88-3.41-1.94-4.69-3.17-2.09,1.01-4.37,1.55-6.85,1.59-3.18.05-6.46-.72-9.83-2.33l-15.08-7.17c-.36-.17-.59-.41-.7-.71-.11-.3-.08-.63.09-.99l24.38-51.28c.17-.36.4-.59.71-.7.3-.11.63-.08.99.09l15.08,7.17c3.37,1.6,6.04,3.65,8.01,6.15,1.53,1.94,2.55,4.04,3.09,6.29,1.75.23,3.56.77,5.42,1.66,4,1.9,6.66,4.58,7.99,8.03,1.33,3.45,1.06,7.14-.8,11.06Z"></path>
      </g>
    </g>
  </g></svg></g></g></svg></g></svg>