<svg width="22" height="22" viewBox="0 0 22 22" fill="none" xmlns="http://www.w3.org/2000/svg">
<g clip-path="url(#clip0_38_9)">
<path fill-rule="evenodd" clip-rule="evenodd" d="M22 6.88361V6.09728C22 5.87814 21.9957 5.6547 21.9914 5.43556C21.9785 4.95431 21.9484 4.46876 21.8625 3.99181C21.7766 3.50626 21.6348 3.05939 21.4113 2.61681C21.1922 2.18282 20.9043 1.79181 20.5605 1.44806C20.2168 1.10431 19.8215 0.816419 19.3918 0.597278C18.9535 0.37384 18.5023 0.232043 18.0168 0.146106C17.5398 0.0601685 17.0543 0.0300903 16.573 0.0171997C16.3539 0.0129028 16.1305 0.00860596 15.9113 0.00860596H6.09727C5.87812 0.00860596 5.65469 0.0129028 5.43555 0.0171997C4.9543 0.0300903 4.46875 0.0601685 3.9918 0.146106C3.50625 0.232043 3.05938 0.37384 2.6168 0.597278C2.18281 0.816419 1.7875 1.10431 1.44805 1.44806C1.10859 1.79181 0.812109 2.17853 0.592969 2.61251C0.365234 3.05079 0.223438 3.50197 0.1375 3.98751C0.0515625 4.46447 0.0214844 4.95001 0.00859375 5.43126C0.00429688 5.6504 0 5.87384 0 6.09298V15.9027C0 16.1219 0.00429688 16.3453 0.00859375 16.5645C0.0214844 17.0457 0.0515625 17.5313 0.1375 18.0082C0.223438 18.4938 0.365234 18.9406 0.588672 19.3832C0.807813 19.8172 1.0957 20.2082 1.43945 20.552C1.7832 20.8957 2.17852 21.1836 2.6082 21.4027C3.04648 21.6262 3.49766 21.768 3.9832 21.8539C4.46016 21.9399 4.9457 21.9699 5.42695 21.9828C5.64609 21.9871 5.86953 21.9914 6.08867 21.9914H15.8984C16.1176 21.9914 16.341 21.9871 16.5602 21.9828C17.0414 21.9699 17.527 21.9399 18.0039 21.8539C18.4895 21.768 18.9363 21.6262 19.3789 21.4027C19.8129 21.1836 20.2082 20.8957 20.5477 20.552C20.8871 20.2082 21.1793 19.8129 21.3984 19.3832C21.6219 18.9449 21.7637 18.4938 21.8496 18.0082C21.9355 17.5313 21.9656 17.0457 21.9785 16.5645C21.9828 16.3453 21.9871 16.1219 21.9871 15.9027V15.1164L22 6.88361Z" fill="url(#paint0_linear_38_9)"/>
<path fill-rule="evenodd" clip-rule="evenodd" d="M15.5547 3.36015C15.5031 3.36445 15.0305 3.45039 14.9703 3.45898L8.43047 4.77812H8.42618C8.2543 4.8125 8.1211 4.87265 8.01797 4.96289C7.89336 5.06601 7.82461 5.2164 7.79883 5.38828C7.79454 5.42695 7.78594 5.5 7.78594 5.60742V13.793C7.78594 13.9863 7.76875 14.1711 7.63985 14.3301C7.51094 14.4891 7.35196 14.5363 7.16289 14.575C7.0211 14.6051 6.8793 14.6309 6.7375 14.6609C6.1961 14.7684 5.84375 14.8457 5.52579 14.966C5.22071 15.082 4.99297 15.2324 4.8125 15.4258C4.45157 15.8039 4.30547 16.3152 4.35704 16.7922C4.4 17.2004 4.58477 17.5914 4.89844 17.8793C5.11329 18.077 5.37969 18.223 5.69336 18.2875C6.01993 18.352 6.36797 18.3305 6.875 18.2273C7.14571 18.1715 7.39922 18.0898 7.63985 17.9437C7.87618 17.802 8.08243 17.6172 8.24141 17.3852C8.40039 17.1574 8.50352 16.8996 8.56368 16.6289C8.62383 16.3496 8.63672 16.0961 8.63672 15.8168V8.72695C8.63672 8.34883 8.74414 8.2457 9.04922 8.17265C9.04922 8.17265 14.4848 7.07695 14.7383 7.02539C15.0906 6.95664 15.2582 7.05976 15.2582 7.4293V12.2762C15.2582 12.4695 15.2582 12.6629 15.125 12.8219C14.9961 12.9809 14.8371 13.0281 14.6481 13.0668C14.5063 13.0969 14.3645 13.1227 14.2227 13.1527C13.6813 13.2602 13.3289 13.3375 13.0109 13.4578C12.7059 13.5738 12.4781 13.7242 12.2977 13.9176C11.9367 14.2957 11.7777 14.807 11.8293 15.284C11.8723 15.6922 12.0699 16.0832 12.3836 16.3711C12.5984 16.5687 12.8648 16.7105 13.1785 16.775C13.5051 16.8395 13.8531 16.818 14.3602 16.7148C14.6309 16.659 14.8844 16.5773 15.125 16.4355C15.3613 16.2937 15.5676 16.109 15.7266 15.877C15.8856 15.6492 15.9887 15.3914 16.0488 15.1207C16.109 14.8414 16.109 14.5879 16.109 14.3086V3.94023C16.1047 3.56211 15.907 3.33008 15.5547 3.36015Z" fill="white"/>
</g>
<defs>
<linearGradient id="paint0_linear_38_9" x1="11" y1="21.915" x2="11" y2="0.47443" gradientUnits="userSpaceOnUse">
<stop stop-color="#FA233B"/>
<stop offset="1" stop-color="#FB5C74"/>
</linearGradient>
<clipPath id="clip0_38_9">
<rect width="22" height="22" fill="white"/>
</clipPath>
</defs>
</svg>
