<svg width="20" height="20" viewBox="0 0 20 20" fill="none" xmlns="http://www.w3.org/2000/svg">
<path fill-rule="evenodd" clip-rule="evenodd" d="M16.7734 3.05078C16.957 1.97656 17.2305 1.30469 17.5312 1.30078C18.0938 1.30078 18.5469 3.64062 18.5469 6.53125C18.5469 9.41797 18.0898 11.7578 17.5312 11.7578C17.3008 11.7578 17.0898 11.3594 16.918 10.6953C16.6484 13.1328 16.0859 14.8086 15.4375 14.8086C14.9336 14.8086 14.4844 13.8008 14.1836 12.2148C13.9766 15.2344 13.457 17.3789 12.8477 17.3789C12.4648 17.3789 12.1172 16.5312 11.8594 15.1484C11.5508 18 10.8359 20 10 20C9.16406 20 8.44922 18 8.14062 15.1484C7.88672 16.5312 7.53906 17.3789 7.15234 17.3789C6.54297 17.3789 6.02734 15.2383 5.81641 12.2148C5.51562 13.8008 5.0625 14.8086 4.5625 14.8086C3.91406 14.8086 3.35156 13.1328 3.08203 10.6953C2.91406 11.3633 2.69922 11.7578 2.46875 11.7578C1.90625 11.7578 1.45312 9.41797 1.45312 6.53125C1.45312 3.64453 1.91016 1.30078 2.46875 1.30078C2.76953 1.30078 3.03906 1.97656 3.22656 3.05078C3.52734 1.20312 4.01172 0 4.5625 0C5.21484 0 5.78125 1.69922 6.05078 4.16797C6.3125 2.37109 6.71094 1.22656 7.15625 1.22656C7.78125 1.22656 8.30859 3.48047 8.50781 6.62109C8.87891 5.01172 9.41016 4 10.0039 4C10.5977 4 11.1289 5.01172 11.5 6.62109C11.6953 3.48047 12.2266 1.22656 12.8516 1.22656C13.2969 1.22656 13.6914 2.37109 13.957 4.16797C14.2187 1.69922 14.7852 0 15.4375 0C15.9844 0 16.4727 1.20312 16.7734 3.05078ZM0 6.01562C0 4.72656 0.257812 3.67969 0.578125 3.67969C0.898438 3.67969 1.15234 4.72656 1.15234 6.01562C1.15234 7.30469 0.894531 8.35156 0.574219 8.35156C0.253906 8.35156 0 7.30859 0 6.01562ZM18.8477 6.01562C18.8477 4.72656 19.1055 3.67969 19.4258 3.67969C19.7461 3.67969 20 4.72656 20 6.01562C20 7.30469 19.7422 8.35156 19.4219 8.35156C19.1016 8.35156 18.8477 7.30859 18.8477 6.01562Z" fill="#A238FF"/>
</svg>
