<?xml version="1.0" encoding="UTF-8"?>
<svg id="Calque_2" data-name="Calque 2" xmlns="http://www.w3.org/2000/svg" viewBox="0 0 1378.68 320">
  <defs>
    <style>
      .cls-1 {
        fill: #f9f7f2;
      }

      .cls-2 {
        fill: #1a1a1a;
      }
    </style>
  </defs>
  <g id="Calque_1-2" data-name="Calque 1">
    <g>
      <path class="cls-2" d="M947.77,92.95c-13.32,0-23.97,3.83-31.95,11.47-7.98,7.65-11.97,17.94-11.97,30.86v56.97c0,12.92,3.99,23.21,11.97,30.86,7.98,7.65,18.62,11.47,31.95,11.47s23.97-3.82,31.95-11.47c7.98-7.65,11.97-17.93,11.97-30.86v-56.97c0-12.92-3.99-23.21-11.97-30.86-7.98-7.65-18.63-11.47-31.95-11.47ZM954.49,193.83c0,2.77-.59,4.94-1.78,6.53-1.19,1.58-2.84,2.37-4.95,2.37s-3.76-.79-4.94-2.37c-1.19-1.58-1.78-3.76-1.78-6.53v-60.13c0-2.77.59-4.94,1.78-6.53,1.19-1.58,2.83-2.37,4.94-2.37s3.76.79,4.95,2.37c1.19,1.58,1.78,3.76,1.78,6.53v60.13Z"/>
      <path class="cls-2" d="M853.02,92.95c-13.19,0-23.71,3.76-31.55,11.27-7.85,7.52-11.77,17.67-11.77,30.46v57.76c0,12.79,3.96,23.01,11.87,30.66,7.91,7.65,18.4,11.47,31.45,11.47,8.57,0,16.12-1.71,22.65-5.14,6.53-3.43,11.6-8.34,15.23-14.74,3.62-6.39,5.44-13.81,5.44-22.25v-.79c0-.92-.27-1.68-.79-2.27-.53-.59-1.25-.89-2.18-.89l-31.25-.99c-1.98,0-2.97.92-2.97,2.77v5.34c0,2.24-.56,3.99-1.68,5.24-1.12,1.26-2.61,1.88-4.45,1.88s-3.33-.62-4.45-1.88c-1.12-1.25-1.68-3-1.68-5.24v-63.5c0-2.24.56-4.02,1.68-5.34,1.12-1.32,2.6-1.98,4.45-1.98s3.33.66,4.45,1.98c1.12,1.32,1.68,3.1,1.68,5.34v4.95c0,1.85.99,2.77,2.97,2.77l31.25-.99c.92,0,1.65-.3,2.18-.89.53-.59.79-1.35.79-2.27v-.99c0-12.79-3.96-22.95-11.87-30.46-7.91-7.52-18.4-11.27-31.45-11.27Z"/>
      <path class="cls-2" d="M441.11,106.84h-3.94c-1.21,0-1.82.61-1.82,1.82v111.05c0,1.21.61,1.82,1.82,1.82l4.25-.3c3.23-.2,5.96-1.72,8.19-4.55,2.22-2.83,3.44-6.47,3.64-10.92v-83.44c0-4.65-1.11-8.39-3.34-11.22-2.23-2.83-5.16-4.25-8.8-4.25Z"/>
      <path class="cls-2" d="M1092.96,94.54h-33.03c-1.98,0-3.03.92-3.17,2.77l-8.11,70.02c0,.4-.2.59-.59.59s-.59-.2-.59-.59l-8.9-70.02c-.13-1.84-1.19-2.77-3.16-2.77h-34.02c-1.85,0-2.77.79-2.77,2.37v.79l27.69,132.73c.4,1.71,1.51,2.57,3.36,2.57h34.62c1.85,0,2.97-.86,3.36-2.57l28.09-132.73c.4-2.11-.53-3.16-2.77-3.16Z"/>
      <path class="cls-2" d="M1318.68,0H60c-5.92,0-11.63.87-17.03,2.47-1.48.44-2.94.93-4.37,1.48-2.01.77-3.97,1.65-5.87,2.62-.94.48-1.86.98-2.77,1.51-2.86,1.66-5.58,3.53-8.12,5.63-2.22,1.83-4.31,3.83-6.25,5.96-1.01,1.11-1.96,2.26-2.88,3.45-.85,1.09-1.68,2.2-2.46,3.35-1.62,2.39-3.07,4.91-4.33,7.53-.84,1.75-1.6,3.54-2.28,5.38-.67,1.84-1.26,3.72-1.75,5.64-1.23,4.79-1.89,9.82-1.89,14.99h0v200h0c0,4.14.42,8.19,1.22,12.09.8,3.91,1.98,7.67,3.5,11.26.76,1.79,1.6,3.54,2.53,5.24,1.39,2.55,2.95,4.99,4.68,7.3,1.15,1.54,2.38,3.02,3.67,4.44,1.29,1.42,2.65,2.78,4.07,4.07,10.66,9.68,24.81,15.59,40.34,15.59h1258.68c33.14,0,60-26.86,60-60V60c0-33.14-26.86-60-60-60ZM510.29,209.7c0,11.94-2.84,22.5-8.5,31.71-5.67,9.21-13.61,16.34-23.82,21.39-10.22,5.06-22,7.58-35.35,7.58h-59.77c-1.42,0-2.53-.4-3.34-1.21-.81-.81-1.21-1.92-1.21-3.34V62.54c0-1.41.4-2.53,1.21-3.34.8-.81,1.92-1.21,3.34-1.21h59.77c13.35,0,25.13,2.53,35.35,7.58,10.21,5.06,18.15,12.19,23.82,21.39,5.66,9.21,8.5,19.77,8.5,31.71v91.03ZM581.89,265.83c0,1.42-.41,2.53-1.21,3.34-.81.81-1.93,1.21-3.34,1.21h-47.94c-1.42,0-2.53-.4-3.34-1.21-.81-.81-1.21-1.92-1.21-3.34V62.54c0-1.41.4-2.53,1.21-3.34.8-.81,1.92-1.21,3.34-1.21h47.94c1.41,0,2.53.41,3.34,1.21.8.81,1.21,1.92,1.21,3.34v203.29ZM725.75,128.03c0,1.39-.4,2.48-1.19,3.28-.8.8-1.89,1.19-3.28,1.19h-47.06c-1.39,0-2.48-.4-3.28-1.19-.8-.79-1.19-1.88-1.19-3.28v-10.42c0-3.77-.85-6.8-2.53-9.08-1.69-2.28-3.92-3.43-6.7-3.43s-5.02,1.14-6.7,3.43c-1.69,2.29-2.53,5.31-2.53,9.08v92.32c0,3.78.84,6.81,2.53,9.08,1.68,2.29,3.92,3.43,6.7,3.43s5.01-1.14,6.7-3.43c1.68-2.28,2.53-5.31,2.53-9.08v-14.59c0-1.19-.6-1.79-1.79-1.79h-2.38c-1.39,0-2.49-.4-3.28-1.19-.8-.79-1.19-1.88-1.19-3.28v-34.25c0-1.39.4-2.48,1.19-3.28.79-.79,1.88-1.19,3.28-1.19h55.69c1.39,0,2.48.4,3.28,1.19.79.8,1.19,1.89,1.19,3.28v54.8c0,12.11-2.73,22.78-8.19,32.01-5.46,9.23-13.1,16.34-22.93,21.3-9.83,4.96-21.19,7.44-34.1,7.44-19.66,0-35.44-5.51-47.35-16.53-11.91-11.02-17.87-25.76-17.87-44.22v-92.03c0-18.47,5.95-33.16,17.87-44.08,11.92-10.92,27.7-16.38,47.35-16.38,12.91,0,24.27,2.48,34.1,7.44,9.83,4.96,17.47,12.06,22.93,21.3,5.46,9.23,8.19,20,8.19,32.31v9.83ZM1323.24,225.75c0,23.17-18.78,41.95-41.95,41.95h-414.76c-24.95,2.74-50.68-3.31-72.11-18.3l-37.28,37.28c-6.65,6.65-17.43,6.65-24.08,0l-2.06-2.06c-6.65-6.65-6.65-17.43,0-24.08l37.28-37.28c-28.84-41.21-24.89-98.38,11.91-135.17,23.85-23.85,56.25-33.82,87.32-30.1h413.78c23.17,0,41.95,18.78,41.95,41.95v125.81Z"/>
      <path class="cls-2" d="M1264.45,173.66c-.13-.66.06-1.19.59-1.58,4.75-3.56,8.37-8.21,10.88-13.95,2.5-5.74,3.76-12.23,3.76-19.48,0-8.57-1.71-16.19-5.14-22.85-3.43-6.66-8.21-11.87-14.34-15.63-6.13-3.76-13.15-5.64-21.07-5.64h-44.51c-.93,0-1.65.27-2.18.79-.53.53-.79,1.25-.79,2.18v132.53c0,.93.26,1.65.79,2.18.53.53,1.25.79,2.18.79h31.25c.92,0,1.65-.26,2.18-.79.53-.53.79-1.25.79-2.18v-49.06c0-.79.26-1.19.79-1.19.26,0,.53.33.79.99l12.07,49.65c.39,1.71,1.45,2.57,3.17,2.57h32.24c1.85,0,2.77-.79,2.77-2.37,0-.39-.07-.72-.2-.99l-16.02-55.98ZM1239.72,148.24c-1.85,2.18-4.22,3.26-7.12,3.26h-2.57c-.79,0-1.19-.4-1.19-1.19v-22.75c0-.79.39-1.19,1.19-1.19h2.57c3.03,0,5.44,1.09,7.22,3.26,1.78,2.18,2.67,5.31,2.67,9.4s-.92,7.02-2.77,9.2Z"/>
      <path class="cls-2" d="M1179.99,94.54h-73.19c-.93,0-1.65.27-2.18.79-.53.53-.79,1.25-.79,2.18v132.53c0,.93.26,1.65.79,2.18.52.53,1.25.79,2.18.79h73.19c.92,0,1.65-.26,2.18-.79.53-.53.79-1.25.79-2.18v-25.91c0-.92-.27-1.65-.79-2.18-.53-.52-1.25-.79-2.18-.79h-37.78c-.79,0-1.19-.4-1.19-1.19v-19.19c0-.79.39-1.19,1.19-1.19h19.58c.92,0,1.65-.26,2.18-.79.53-.53.79-1.25.79-2.18v-25.91c0-.92-.27-1.65-.79-2.18-.53-.52-1.25-.79-2.18-.79h-19.58c-.79,0-1.19-.39-1.19-1.19v-18.99c0-.79.39-1.19,1.19-1.19h37.78c.92,0,1.65-.26,2.18-.79.53-.52.79-1.25.79-2.18v-25.91c0-.92-.27-1.65-.79-2.18-.53-.53-1.25-.79-2.18-.79Z"/>
    </g>
    <g>
      <g>
        <path class="cls-1" d="M178.56,58.03c-48.38,0-87.75,39.36-87.75,87.75s39.36,87.75,87.75,87.75,87.75-39.36,87.75-87.75-39.36-87.75-87.75-87.75ZM178.56,215.9c-38.66,0-70.12-31.46-70.12-70.12s31.46-70.12,70.12-70.12,70.12,31.45,70.12,70.12-31.45,70.12-70.12,70.12Z"/>
        <path class="cls-1" d="M178.56,39.85c-58.41,0-105.94,47.52-105.94,105.93s47.52,105.94,105.94,105.94,105.93-47.52,105.93-105.94-47.52-105.93-105.93-105.93ZM178.56,235.03c-49.21,0-89.25-40.04-89.25-89.25s40.04-89.25,89.25-89.25,89.25,40.04,89.25,89.25-40.04,89.25-89.25,89.25Z"/>
        <path class="cls-1" d="M178.56,77.66c-37.56,0-68.12,30.56-68.12,68.12s30.56,68.12,68.12,68.12,68.12-30.56,68.12-68.12-30.56-68.12-68.12-68.12Z"/>
        <path class="cls-1" d="M267.06,57.75c-49.26-49.26-129.12-49.26-178.38,0-43.93,43.93-48.65,112.19-14.22,161.38l-44.51,44.51c-7.94,7.94-7.94,20.81,0,28.75l2.46,2.46c7.94,7.94,20.81,7.94,28.75,0l44.51-44.51c49.2,34.43,117.45,29.72,161.38-14.22,49.26-49.26,49.26-129.12,0-178.38ZM178.56,252.72c-58.96,0-106.94-47.97-106.94-106.94s47.97-106.93,106.94-106.93,106.93,47.97,106.93,106.93-47.97,106.94-106.93,106.94Z"/>
      </g>
      <g>
        <path class="cls-2" d="M180.3,131.97l-1-.47c-.31-.15-.53-.06-.68.24l-13.32,28.01c-.15.31-.07.53.24.68l1.11.43c.84.34,1.71.28,2.61-.17.9-.45,1.64-1.22,2.23-2.32l10.01-21.05c.56-1.17.73-2.25.5-3.23-.22-.98-.79-1.69-1.71-2.13Z"/>
        <path class="cls-2" d="M178.56,98.82c-25.93,0-46.96,21.02-46.96,46.96s21.02,46.96,46.96,46.96,46.96-21.02,46.96-46.96-21.02-46.96-46.96-46.96ZM210.26,153.03l-.14.3c-.13.28-.33.48-.57.58-.25.1-.51.09-.8-.04l-9.72-4.25c-.61-.29-.77-.71-.51-1.28l.72-1.51c.33-.69.41-1.31.26-1.88-.15-.57-.51-.99-1.08-1.25-.57-.27-1.12-.28-1.65-.04-.52.23-.94.69-1.26,1.34l-9.29,19.55c-.3.66-.39,1.26-.23,1.8.16.55.52.95,1.09,1.22.56.27,1.11.29,1.64.07.52-.22.95-.67,1.28-1.36l.78-1.64c.27-.57.71-.7,1.31-.42l9.43,4.85c.28.13.46.33.54.59.07.26.05.53-.09.81l-.12.24c-1.23,2.59-2.87,4.59-4.91,6.02-2.04,1.43-4.31,2.2-6.81,2.3-2.5.1-5.06-.47-7.69-1.72-1.86-.88-3.41-1.94-4.69-3.17-2.09,1.01-4.37,1.55-6.85,1.59-3.18.05-6.46-.72-9.83-2.33l-15.08-7.17c-.36-.17-.59-.41-.7-.71-.11-.3-.08-.63.09-.99l24.38-51.28c.17-.36.4-.59.71-.7.3-.11.63-.08.99.09l15.08,7.17c3.37,1.6,6.04,3.65,8.01,6.15,1.53,1.94,2.55,4.04,3.09,6.29,1.75.23,3.56.77,5.42,1.66,4,1.9,6.66,4.58,7.99,8.03,1.33,3.45,1.06,7.14-.8,11.06Z"/>
      </g>
    </g>
  </g>
</svg>